<?xml version="1.0" encoding="UTF-8" standalone="no"?>
<svg width="1888px" height="1248px" viewBox="0 0 1888 1248" version="1.1" xmlns="http://www.w3.org/2000/svg" xmlns:xlink="http://www.w3.org/1999/xlink">
    <!-- Generator: Sketch 50.2 (55047) - http://www.bohemiancoding.com/sketch -->
    <title>PicoNeoButtons</title>
    <desc>Created with Sketch.</desc>
    <defs>
        <circle id="path-1" cx="207" cy="207" r="207"></circle>
        <circle id="path-3" cx="207" cy="207" r="207"></circle>
    </defs>
    <g id="Page-1" stroke="none" stroke-width="1" fill="none" fill-rule="evenodd">
        <g id="PicoNeoButtons" transform="translate(1.000000, 0.000000)">
            <path d="M1249,1173 C1249,1173 1351,1211 1519,1173 C1687,1135 1524,1213 1524,1213 C1524,1213 1395,1257 1236,1213 C1077,1169 1249,1173 1249,1173 Z" id="Shape" fill="#000000" fill-rule="nonzero"></path>
            <path d="M931,812 C931,812 949,684 993,677 C1037,670 1047.3,721 1047.3,721 C1047.3,721 1034,759 1026,833 C1018,907 931,812 931,812 Z" id="Shape" fill="#282828" fill-rule="nonzero"></path>
            <path d="M1242,1230 C1242,1230 1267,1166 1258,1110 C1255,1076 1248,1086 1210,1066 C1172,1046 1082,988 1051,929 C1020,870 1034,746 1051,712 C1068,678 1040,720 1040,720 C1040,720 1035,813 1005,817 C975,821 997,1047 1028,1074 C1059,1101 1242,1230 1242,1230 Z" id="Shape" fill="#3A3A3A" fill-rule="nonzero"></path>
            <path d="M1242,1230 C1242,1230 1249,1190 1236,1176 C1223,1162 1115,1127 1051,1049 C987,971 1018,821 1013,812 C1008,803 937,802 937,802 L942,960 C942,960 966,1104 1057,1159 C1148,1214 1177,1232 1242,1230 Z" id="Shape" fill="#2C2D2D" fill-rule="nonzero"></path>
            <polygon id="Shape" fill="#282828" fill-rule="nonzero" points="1761 718 1761 833 1786 863 1822 863 1865 833 1849 725 1813 683"></polygon>
            <path d="M1524,1230 C1524,1230 1515,1227 1510,1123 C1510,1093 1506,1086 1534,1077 C1562,1068 1666,1010 1718,935 C1770,860 1754,721 1754,721 L1766,729 C1766,729 1757,815 1799,849 C1841,883 1735,1089 1735,1089 L1600,1184 L1524,1230 Z" id="Shape" fill="#3A3A3A" fill-rule="nonzero"></path>
            <path d="M1524,1230 C1524,1230 1527,1174 1542,1169 C1557,1164 1630,1141 1706,1078 C1782,1015 1796,859 1794,848 C1792,837 1813,830 1865,835 C1865,835 1847,997 1810,1047 C1773,1097 1682,1217 1542,1234 L1524,1230 Z" id="Shape" fill="#2C2D2D" fill-rule="nonzero"></path>
            <path d="M988,689 C988,689 1119,813 1406,812 C1693,811 1814,712 1822,694 C1830,676 1698,563 1413,565 C1128,567 1019,653 1019,653 L988,689 Z" id="Shape" fill="#88898A" fill-rule="nonzero"></path>
            <path d="M1694,1163 C1739.7,1127.2 1788.5,1071.5 1816,1011 C1836,967 1834,962 1824,953 C1813,943 1830,907 1831,892 C1832,877 1831.4,848.7 1845,846 C1855,844 1854,839 1854,826 C1854,806 1851,760 1838,737 C1825,714 1793.2,643.2 1650,604 C1544,575 1328,565 1260,583 C1192,601 1082,604 993,700 C993,700 1020,717 1007,731 C994,745 982,744 972,741 C962,738 962,747 960,753 C958,759 946,799 945,817 C945,817 961,813.9 960,842 C959,871 961,903 962,918 C963,933 967,945 952,949 C952,949 958,1053 1042,1133 C1126,1213 1242,1227 1242,1227 C1242,1227 1240,1240 1236,1243 C1232,1246 1154,1230 1154,1230 C1154,1230 1068,1191 1042,1164 C1016,1137 940,1067 921,946 C902,825 918,713 979,667 C1040,621 1142,563 1281,554 C1420,545 1630,549 1725,600 C1820,651 1872,685 1882,779 C1892,873 1845,1046 1782,1111 C1719,1176 1656,1224 1594,1237 L1578,1234.9 C1578,1234.9 1539.8,1250 1530,1243 C1523,1238 1524,1230 1524,1230 C1524,1230 1620,1221 1694,1163 Z" id="Shape" fill="#757678" fill-rule="nonzero"></path>
            <path d="M1168,1241 C1168,1241 1173,1245 1180,1241 C1187,1237 1210,1246 1215,1246 C1220,1246 1232,1250 1236,1243 C1236,1243 1180.1,1239.7 1139.6,1219.9 C1099,1200 1140,1231 1140,1231 C1140,1231 1160,1239 1168,1241 Z M1530,1243 C1530,1243 1533,1250 1554,1246 C1575,1242 1576,1235 1588,1243 C1594,1247 1626,1231 1626,1231 L1623,1221 C1623,1221 1578,1239 1530,1243 Z" id="Shape" fill="#484544" fill-rule="nonzero"></path>
            <path d="M1626,1231 C1626,1231 1782,1169 1839,1026 C1896,883 1892.3,776.1 1875.7,727.1 C1859.1,678.1 1793,593 1793,593 L1543,519 L1320,515 L996,602 L932,712 C932,712 920,745 912,774 C904,803 910,903 917,951 C924,999 970,1157 1140,1231 L1142,1221 C1142,1221 976.8,1147.8 936,994 C919,930 917,857 918,816 C919,775 938,699 1002,654 C1066,609 1129,586 1190,573 C1251,560 1442,537 1629,576 C1816,615 1855,708 1866,732 C1877,756 1888,831 1853,965 C1818,1099 1716,1172.3 1676,1195 C1639,1216 1621,1221 1621,1221 L1626,1231 Z M996.8,451.6 C996.8,451.6 982,454 984,414 C986,374 1064,347 1064,347 L1081,382 L1032,444 L996.8,451.6 Z M1796,461 C1796,461 1820,459 1814,429 C1808,399 1766,374 1766,374 L1761,388 L1796,461 Z" id="Shape" fill="#C2C1C0" fill-rule="nonzero"></path>
            <path d="M1032,515 C1150,318 1256,312 1256,312 L1256,271 L1557,287 L1557,315 C1557,315 1674,335 1770,515 L1710,474 C1710,474 1647,406 1548,387 C1524.1,382.4 1475,370 1400,372 C1344.4,373.5 1276,376.1 1225,393 C1134.9,422.8 1099,472 1099,472 C1099,472 914,712 1032,515 Z" id="Shape" fill="#A8A7A8" fill-rule="nonzero"></path>
            <path d="M1000.5,450.5 C1000.5,450.5 981.5,460.5 978.5,423.5 C975.5,386.5 964.3,319.7 957.5,117.5 C954.5,28.5 1024.5,21.5 1070.5,13.5 C1070.5,13.5 1358.4,-15.3 1677.5,13.5 C1854.5,29.5 1848.5,93.5 1847.5,123.5 C1846.5,153.5 1838.4,283.6 1821.5,407.5 C1818.5,429.5 1819.5,462.5 1795.5,460.5 C1795.5,460.5 1845.5,451.5 1777.5,389.5 C1709.5,327.5 1579.5,285.5 1402.5,285.5 C1225.5,285.5 1139.5,314.5 1054.5,361.5 C969.5,408.5 984.5,456.5 1000.5,450.5 Z" id="Shape" fill="#DDDDDD" fill-rule="nonzero"></path>
            <path d="M1386,416 C1574,417 1685.2,435.7 1788,525 C1826,558 1838,596 1850,634 C1862,672 1884,751 1885,761 C1885,761 1877,665 1752,607 C1627,549 1492,546 1440,545 C1388,544 1222,538 1085,594 C948,650 931,728 912,774 C912,774 936,672 943,649 C950,626 961,568 1023,517 C1085,466 1198,415 1386,416 Z" id="Shape" fill="#E4E4E4" fill-rule="nonzero"></path>
            <path d="M1846.4,913 C1840.4,913 1836.2,908.7 1837.2,903.5 L1839,893.5 C1840,888.3 1845.7,884 1851.7,884 C1857.7,884 1861.9,888.3 1860.9,893.5 L1859.1,903.5 C1858.1,908.7 1852.4,913 1846.4,913 Z M1862.5,872 L1844.5,872 C1843.4,872 1842.8,870.1 1843,869 C1843.2,867.9 1844.4,866 1845.5,866 L1863.5,866 C1864.6,866 1865.2,867.9 1865,869 C1864.8,870.1 1863.6,872 1862.5,872 Z M930.9,883 L952.9,884 L952.2,865 C952.2,865 952.8,853 940.8,853 C928.8,853 930.3,865 930.3,865 L930.9,883 Z M953.1,887 L931.1,886 L931.8,905 C931.8,905 931.2,917 943.2,917 C955.2,917 953.7,905 953.7,905 L953.1,887 Z" id="Shape" fill="#898989" fill-rule="nonzero"></path>
            <g id="Group" transform="translate(447.000000, 154.000000)">
                <g id="Clipped">
                    <mask id="mask-2" fill="white">
                        <use xlink:href="#path-1"></use>
                    </mask>
                    <g id="a"></g>
                    <g id="Group" mask="url(#mask-2)" fill-rule="nonzero">
                        <g transform="translate(149.000000, -535.000000)" id="Shape">
                            <path d="M45,579.178 C45,579.178 80.133,329.916 166.015,316.285 C251.896,302.654 272,401.968 272,401.968 C272,401.968 246.04,475.968 230.426,620.072 C214.81,764.176 45,579.178 45,579.178 Z" fill="#282828"></path>
                            <path d="M650.986,1393 C650.986,1393 699.739,1268.32 682.188,1159.227 C676.338,1092.991 662.688,1112.472 588.582,1073.51 C514.478,1034.547 338.967,921.557 278.513,806.618 C218.06,691.68 245.361,450.114 278.513,383.878 C311.665,317.642 257.062,399.463 257.062,399.463 C257.062,399.463 247.312,580.637 188.808,588.43 C130.304,596.222 173.207,1036.495 233.661,1089.094 C294.114,1141.694 650.986,1393 650.986,1393 Z" fill="#3A3A3A"></path>
                            <path d="M651.333,1393.711 C651.333,1393.711 664.973,1315.701 639.641,1288.397 C614.309,1261.094 403.856,1192.835 279.144,1040.714 C154.432,888.594 214.839,596.054 205.096,578.503 C195.353,560.95 57,559 57,559 L66.743,867.141 C66.743,867.141 113.51,1147.98 290.836,1255.243 C468.16,1362.507 524.672,1397.612 651.333,1393.711 Z" fill="#2C2D2D"></path>
                            <path d="M1531.029,1263.57 C1620.083,1193.84 1715.179,1085.35 1768.767,967.509 C1807.74,881.806 1803.843,872.068 1784.357,854.538 C1762.921,835.06 1796.048,764.94 1797.997,735.723 C1799.946,706.507 1798.777,651.384 1825.278,646.125 C1844.765,642.23 1842.816,632.491 1842.816,607.17 C1842.816,568.214 1836.97,478.617 1811.638,433.818 C1786.305,389.018 1724.338,251.116 1445.288,174.763 C1238.728,118.278 817.815,98.8 685.305,133.86 C552.795,168.92 338.442,174.763 165.01,361.75 C165.01,361.75 217.624,394.862 192.292,422.131 C166.959,449.4 143.575,447.452 124.088,441.609 C104.601,435.766 104.601,453.296 100.704,464.982 C96.807,476.669 73.423,554.58 71.474,589.64 C71.474,589.64 102.653,583.602 100.704,638.334 C98.755,694.82 102.653,757.149 104.601,786.365 C106.55,815.582 114.345,838.955 85.115,846.746 C85.115,846.746 96.807,1049.316 260.495,1205.137 C424.183,1360.96 650.229,1388.23 650.229,1388.23 C650.229,1388.23 646.332,1413.55 638.537,1419.394 C630.743,1425.237 478.747,1394.073 478.747,1394.073 C478.747,1394.073 311.16,1318.109 260.494,1265.519 C209.829,1212.929 61.73,1076.584 24.704,840.903 C-12.32,605.223 18.859,387.071 137.728,297.473 C256.597,207.876 455.361,94.905 726.227,77.375 C997.092,59.845 1406.313,67.635 1591.437,166.972 C1776.561,266.309 1877.892,332.533 1897.378,515.624 C1916.865,698.715 1825.278,1035.681 1702.511,1162.286 C1579.745,1288.892 1456.978,1382.386 1336.161,1407.706 L1304.982,1403.616 C1304.982,1403.616 1230.542,1433.027 1211.446,1419.393 C1197.806,1409.654 1199.754,1394.072 1199.754,1394.072 C1199.754,1394.072 1386.826,1376.542 1531.028,1263.571 L1531.029,1263.57 Z" fill="#757678"></path>
                            <path d="M1398.606,1395 C1398.606,1395 1702.559,1274.204 1813.619,995.594 C1924.679,716.984 1917.47,508.707 1885.126,413.24 C1852.783,317.772 1723.992,151.97 1723.992,151.97 L1236.887,7.793 L802.39,0 L171.102,169.504 L46.403,383.82 C46.403,383.82 23.023,448.115 7.435,504.616 C-8.153,561.117 3.538,755.95 17.177,849.469 C30.816,942.99 120.443,1250.824 451.674,1395 L455.571,1375.517 C455.571,1375.517 133.692,1232.899 54.197,933.247 C21.074,808.554 17.177,666.327 19.125,586.446 C21.074,506.564 58.094,358.492 182.792,270.817 C307.492,183.142 430.242,138.331 549.095,113.003 C667.949,87.675 1040.097,42.863 1404.451,118.848 C1768.806,194.832 1844.794,376.027 1866.227,422.786 C1887.659,469.546 1909.092,615.67 1840.897,876.746 C1772.703,1137.821 1573.964,1280.633 1496.027,1324.86 C1423.936,1365.775 1388.864,1375.517 1388.864,1375.517 L1398.606,1395 Z" fill="#C2C1C0"></path>
                            <path d="M44.282,717.065 L87,719 L85.64,682.226 C85.64,682.226 86.807,659 63.506,659 C40.205,659 43.118,682.226 43.118,682.226 L44.283,717.065 L44.282,717.065 Z M87.718,724.935 L45,723 L46.36,759.774 C46.36,759.774 45.193,783 68.494,783 C91.795,783 88.882,759.774 88.882,759.774 L87.717,724.935 L87.718,724.935 Z" fill="#898989"></path>
                        </g>
                    </g>
                </g>
            </g>
            <circle id="Oval" stroke="#FD603A" stroke-width="23" cx="654" cy="361" r="195.5"></circle>
            <circle id="Oval" stroke="#FD603A" stroke-width="3" cx="664.5" cy="307.5" r="34"></circle>
            <path d="M4.5,242.5 L606.5,242.5" id="Shape" stroke="#FD603A" stroke-width="3" stroke-linecap="square"></path>
            <text id="Pvr_KeyCode.VOLUMEUP" fill="#000000" font-family="Verdana" font-size="34" font-weight="normal">
                <tspan x="11" y="228">Pvr_KeyCode.VOLUMEUP</tspan>
            </text>
            <path d="M607.5,242.5 L648.5,276.5" id="Shape" stroke="#FD603A" stroke-width="3" stroke-linecap="square"></path>
            <circle id="Oval" stroke="#FD603A" stroke-width="3" cx="664.5" cy="377.5" r="34"></circle>
            <path d="M4.5,446.5 L606.5,446.5" id="Shape" stroke="#FD603A" stroke-width="3" stroke-linecap="square"></path>
            <text id="Pvr_KeyCode.VOLUMEUP" fill="#000000" font-family="Verdana" font-size="34" font-weight="normal">
                <tspan x="11" y="432">Pvr_KeyCode.VOLUMEUP</tspan>
            </text>
            <path d="M607.5,446.5 L648.5,412.5" id="Shape" stroke="#FD603A" stroke-width="3" stroke-linecap="square"></path>
            <ellipse id="Oval" fill="#1E1E1E" fill-rule="nonzero" transform="translate(975.079000, 720.543000) rotate(-83.875000) translate(-975.079000, -720.543000) " cx="975.079" cy="720.543" rx="6.9" ry="11.3"></ellipse>
            <path d="M958.8,92.4 C968.8,27.1 1029.3,20.7 1070.5,13.5 C1070.5,13.5 1358.4,-15.3 1677.5,13.5 C1824.4,26.8 1845.3,73.1 1847.5,105.7 C1847.6,107.6 1844.8,70.2 1727,59 C1568.1,43.9 1257,43 1094,52 C960.9,59.3 958.4,94.9 958.8,92.4 Z" id="Shape" fill="#EAEAEA" fill-rule="nonzero"></path>
            <g id="Group" transform="translate(1831.000000, 924.000000)" stroke="#898989">
                <path d="M20.2,12.2 C16.9,16.5 10.4,17.9 5.6,16 C0.7,14.2 -0.8,9.9 2.5,5.6 C5.8,1.3 12.3,-0.1 17.1,1.8 C21.9,3.6 23.5,7.8 20.2,12.2 Z" id="Shape" stroke-width="2"></path>
                <path d="M0.7,8.9 C0.7,8.9 3.8,4.5 8.7,5.1 C13.6,5.7 13.8,8.6 16.5,9.6 C19.2,10.7 21.6,9.2 21.6,9.2" id="Shape" stroke-width="2"></path>
                <path d="M6.2,10.8 C8.1,11 8.6,9 6.7,8.8 C4.8,8.6 4.3,10.5 6.2,10.8 Z" id="Shape" fill="#2D2D2C" fill-rule="nonzero"></path>
            </g>
            <g id="Group" transform="translate(447.000000, 706.000000)">
                <g id="Clipped">
                    <mask id="mask-4" fill="white">
                        <use xlink:href="#path-3"></use>
                    </mask>
                    <g id="c"></g>
                    <g id="Group" mask="url(#mask-4)">
                        <g transform="translate(-1578.000000, -527.000000)">
                            <polygon id="Shape" fill="#282828" fill-rule="nonzero" points="1656 394.056 1656 617.666 1704.558 676 1774.481 676 1858 617.667 1826.923 407.667 1757 326"></polygon>
                            <path d="M1195.584,1387 C1195.584,1387 1178.098,1381.177 1168.384,1179.306 C1168.384,1121.075 1160.612,1107.487 1215.013,1090.018 C1269.413,1072.548 1471.473,959.967 1572.503,814.387 C1673.533,668.807 1642.446,399 1642.446,399 L1665.761,414.528 C1665.761,414.528 1648.275,581.46 1729.876,647.456 C1811.476,713.452 1605.532,1113.31 1605.532,1113.31 L1343.242,1297.711 L1195.585,1387 L1195.584,1387 Z" id="Shape" fill="#3A3A3A" fill-rule="nonzero"></path>
                            <path d="M1196,1387.242 C1196,1387.242 1201.824,1278.637 1230.944,1268.94 C1260.064,1259.243 1401.783,1214.638 1549.326,1092.457 C1696.868,970.276 1724.046,667.733 1720.164,646.4 C1716.282,625.066 1757.05,611.49 1858,621.188 C1858,621.188 1823.056,935.368 1751.226,1032.336 C1679.396,1129.305 1502.733,1362.031 1230.944,1395 L1196,1387.242 Z" id="Shape" fill="#2C2D2D" fill-rule="nonzero"></path>
                            <path d="M1527.2,1258.042 C1615.972,1188.518 1710.765,1080.347 1764.184,962.855 C1803.034,877.406 1799.148,867.696 1779.724,850.218 C1758.356,830.798 1791.378,760.885 1793.321,731.755 C1795.263,702.625 1794.098,647.665 1820.516,642.422 C1839.941,638.538 1837.998,628.828 1837.998,603.582 C1837.998,564.742 1832.171,475.409 1806.918,430.742 C1781.666,386.076 1719.895,248.581 1441.731,172.454 C1235.828,116.135 816.251,96.714 684.161,131.671 C552.073,166.628 338.399,172.454 165.518,358.887 C165.518,358.887 217.965,391.902 192.713,419.09 C167.46,446.278 144.151,444.336 124.726,438.51 C105.301,432.684 105.301,450.162 101.416,461.814 C97.531,473.467 74.221,551.147 72.279,586.104 C72.279,586.104 103.359,580.084 101.416,634.654 C99.474,690.973 103.358,753.117 105.301,782.248 C107.243,811.378 115.013,834.682 85.876,842.45 C85.876,842.45 97.531,1044.42 260.7,1199.782 C423.869,1355.143 649.197,1382.332 649.197,1382.332 C649.197,1382.332 645.312,1407.578 637.542,1413.404 C629.772,1419.23 478.258,1388.157 478.258,1388.157 C478.258,1388.157 311.204,1312.419 260.7,1259.984 C210.195,1207.55 62.566,1071.608 25.66,836.624 C-11.248,601.64 19.832,384.134 138.323,294.801 C256.815,205.468 454.948,92.831 724.953,75.353 C994.959,57.875 1402.881,65.643 1587.417,164.686 C1771.954,263.729 1872.963,329.757 1892.387,512.306 C1911.812,694.856 1820.516,1030.826 1698.139,1157.057 C1575.762,1283.288 1453.386,1376.505 1332.952,1401.752 L1301.872,1397.673 C1301.872,1397.673 1227.669,1426.998 1208.632,1413.403 C1195.035,1403.693 1196.978,1388.157 1196.978,1388.157 C1196.978,1388.157 1383.456,1370.68 1527.2,1258.042 Z" id="Shape" fill="#757678" fill-rule="nonzero"></path>
                            <path d="M1394.203,1390 C1394.203,1390 1697.2,1269.637 1807.91,992.025 C1918.62,714.413 1911.434,506.885 1879.192,411.758 C1846.95,316.633 1718.565,151.425 1718.565,151.425 L1232.994,7.765 L799.864,-1.13686838e-13 L170.564,168.897 L46.257,382.444 C46.257,382.444 22.95,446.508 7.411,502.807 C-8.127,559.107 3.527,753.24 17.123,846.425 C30.719,939.609 120.063,1246.341 450.253,1390 L454.137,1370.587 C454.137,1370.587 133.271,1228.48 54.027,929.902 C21.007,805.656 17.123,663.939 19.065,584.344 C21.007,504.749 57.911,357.207 182.217,269.846 C306.523,182.486 428.887,137.836 547.367,112.598 C665.847,87.36 1036.823,42.709 1400.03,118.422 C1763.238,194.134 1838.987,374.679 1860.352,421.271 C1881.717,467.863 1903.082,613.464 1835.102,873.603 C1767.122,1133.743 1569.009,1276.043 1491.318,1320.112 C1419.453,1360.88 1384.492,1370.587 1384.492,1370.587 L1394.203,1390 Z" id="Shape" fill="#C2C1C0" fill-rule="nonzero"></path>
                            <path d="M1821.92,773 C1810.417,773 1802.366,764.548 1804.283,754.328 L1807.733,734.672 C1809.65,724.452 1820.578,716 1832.08,716 C1843.583,716 1851.634,724.452 1849.717,734.672 L1846.267,754.328 C1844.35,764.548 1833.422,773 1821.92,773 Z M1854.056,694 L1818.996,694 C1816.853,694 1815.685,690.2 1816.074,688 C1816.464,685.8 1818.801,682 1820.944,682 L1856.004,682 C1858.147,682 1859.315,685.8 1858.926,688 C1858.536,690.2 1856.199,694 1854.056,694 Z" id="Shape" fill="#898989" fill-rule="nonzero"></path>
                            <g id="Group" stroke-width="1" fill="none" fill-rule="evenodd" transform="translate(1793.000000, 796.000000)">
                                <path d="M38.465,22.63 C31.985,31.024 19.222,33.757 9.796,30.048 C0.175,26.534 -2.771,18.14 3.709,9.746 C10.189,1.353 22.953,-1.38 32.379,2.329 C41.804,5.842 44.945,14.041 38.465,22.63 Z" id="Shape" stroke="#898989" stroke-width="2"></path>
                                <path d="M0.175,16.188 C0.175,16.188 6.262,7.599 15.884,8.77 C25.505,9.942 25.898,15.603 31.2,17.555 C36.502,19.702 41.215,16.774 41.215,16.774" id="Shape" stroke="#898989" stroke-width="2"></path>
                                <path d="M10.975,19.897 C14.705,20.287 15.687,16.383 11.956,15.993 C8.226,15.603 7.244,19.312 10.975,19.897 Z" id="Shape" stroke="#898989" fill="#2D2D2C" fill-rule="nonzero"></path>
                            </g>
                        </g>
                    </g>
                </g>
            </g>
            <circle id="Oval" stroke="#FD603A" stroke-width="23" cx="654" cy="913" r="195.5"></circle>
            <circle id="Oval" stroke="#FD603A" stroke-width="3" cx="703.5" cy="865.5" r="34"></circle>
            <path d="M0.566,800.5 L645.495,800.5" id="Shape" stroke="#FD603A" stroke-width="3" stroke-linecap="square"></path>
            <text id="KeyCode.Escape" fill="#000000" font-family="Verdana" font-size="34" font-weight="normal">
                <tspan x="11" y="786">KeyCode.Escape</tspan>
            </text>
            <path d="M646.5,800.5 L687.5,834.5" id="Shape" stroke="#FD603A" stroke-width="3" stroke-linecap="square"></path>
            <circle id="Oval" stroke="#FD603A" stroke-width="3" cx="694.5" cy="933.5" r="34"></circle>
            <path d="M3.78,868.5 L635.853,868.5" id="Shape" stroke="#FD603A" stroke-width="3" stroke-linecap="square"></path>
            <text id="KeyCode.JoystickButt" fill="#000000" font-family="Verdana" font-size="34" font-weight="normal">
                <tspan x="11" y="854">KeyCode.JoystickButton0</tspan>
            </text>
            <path d="M637.5,868.5 L678.5,902.5" id="Shape" stroke="#FD603A" stroke-width="3" stroke-linecap="square"></path>
            <circle id="Oval" stroke="#FD603A" stroke-width="3" cx="684.5" cy="999.5" r="34"></circle>
            <path d="M1.637,934.5 L625.14,934.5" id="Shape" stroke="#FD603A" stroke-width="3" stroke-linecap="square"></path>
            <text id="Home-Button" fill="#7B7B7B" font-family="Verdana" font-size="34" font-weight="normal">
                <tspan x="11" y="920">Home Button</tspan>
            </text>
            <path d="M627.5,934.5 L668.5,968.5" id="Shape" stroke="#FD603A" stroke-width="3" stroke-linecap="square"></path>
        </g>
    </g>
</svg>