<?xml version="1.0" encoding="UTF-8" standalone="no"?>
<svg width="1518px" height="892px" viewBox="0 0 1518 892" version="1.1" xmlns="http://www.w3.org/2000/svg" xmlns:xlink="http://www.w3.org/1999/xlink">
    <!-- Generator: Sketch 50.2 (55047) - http://www.bohemiancoding.com/sketch -->
    <title>PicoGoblinButtons</title>
    <desc>Created with Sketch.</desc>
    <defs></defs>
    <g id="Page-1" stroke="none" stroke-width="1" fill="none" fill-rule="evenodd">
        <g id="PicoGoblinButtons">
            <g id="Group" transform="translate(280.000000, 0.000000)">
                <path d="M59,118 L355,71 C355,71 454,62 633,144 C812,226 870,318 870,318 L866,344 L811,351 L618,253 C451,183 352,179 352,179 L54.4,232" id="Shape" fill="#3C3C3C" fill-rule="nonzero"></path>
                <path d="M374.1,773.9 C374.1,773.9 346,758 327,732 C308,706 300.3,657 300.3,657 L279,572 C279,572 291,472 311,437 C331,402 364,373 440,373 C537,373 695,354 695,354 L803,334 C803,334 844,323 857,313 C862.7,308.6 870,306 874,306 C878.4,306 877.9,307 893,307 L374.1,773.9 Z M187,31 L245,18 L200,8 C185,8 181,25 181,25 L187,31 Z" id="Shape" fill="#1A1A1A" fill-rule="nonzero"></path>
                <path d="M172,49 C172,49 173,34 181,25 C187.2,18.1 232.2,15.4 273,22 C325.6,30.5 363,49 363,49 C363,49 410,56 416,57 C422,58 435,64 432,76 C429,88 410,178 407,193 C404,208 395,212 382,209 C369,206 297,193 207,205 C117,217 70,253 70,253 L38,245 L59,118 C59,118 60,98 108,77 C150.9,58.2 168,57 168,57 C168,57 172,56 172,49 Z" id="Shape" fill="#000000" fill-rule="nonzero"></path>
                <path d="M73,123 L59,118 C52.3,124.5 46.6,131.9 42,140 C37.1,148.7 32.7,157.7 29,167 L21,238 L53,236 L73,123 Z" id="Shape" fill="#1A1A1A" fill-rule="nonzero"></path>
                <path d="M89,316 C161,397 317,496 317,496 L270,599 C270,599 152.4,520 73,444 C-22,353 4,289.6 4,289.6 L29,167.6 C29,167.6 10.2,227.4 89,316 Z" id="Shape" fill="#4D4D4D" fill-rule="nonzero"></path>
                <path d="M775,318 C775,318 752,269 607,162 C462,55 278,48 278,48 L257,30 C257,30 192,27 190,38 C188,49 193.7,53.9 199,55 C204,56 211.2,54.6 229,58 C279.5,67.6 390.3,95.6 482,148 C601,216 685,326 685,326 L775,318 Z" id="Shape" fill="#000000" fill-rule="nonzero"></path>
                <polygon id="Shape" fill="#1A1A1A" fill-rule="nonzero" points="712 373 814.7 350.6 772 296 681 311 675 325"></polygon>
                <path d="M794,346.8 L794,336 C794,336 839,328 866,316 C891.8,304.6 891,301 891,301 L900,301.3 L900,328 L794,346.8 Z M278.8,634.7 C278.8,634.7 275,650 309,660 C322.4,663.9 343,671 343,671 L342,508 C342,508 336.2,505.6 317,496 C305,490 298,503 298,503 L278.8,634.7 Z" id="Shape" fill="#1A1A1A" fill-rule="nonzero"></path>
                <path d="M1023,323.1 L968,313.1 C927,320.1 735,354.1 735,354.1 L718,355.1 C718,355.1 668,361.1 578,376.1 C470,394.1 439.7,389.6 380,418.1 C336,439.1 323,498.1 323,498.1 L338,506.1 C334,535.9 332,566 332,596.1 C332,645.2 337,676.1 337,676.1 L321,670.1 C321,670.1 323,716.1 351,751.1 C376.5,783 412,796.1 412,796.1" id="Shape" fill="#4D4D4D" fill-rule="nonzero"></path>
                <path d="M834,343 C849,342 854,344 844,345 C832.4,346.2 768,358 753,360 C738,362 731,359 750,356 C750,356 819,344 834,343 Z" id="Shape" fill="#000000" fill-rule="nonzero"></path>
                <ellipse id="Oval" fill="#000000" fill-rule="nonzero" transform="translate(793.571000, 359.207000) rotate(-10.190000) translate(-793.571000, -359.207000) " cx="793.571" cy="359.207" rx="46.099" ry="25.899"></ellipse>
                <path d="M798.153,384.697 C823.211,380.194 841.473,365.13 838.943,351.052 C836.413,336.973 814.048,329.212 788.99,333.716 C763.932,338.22 745.67,353.284 748.2,367.362 C750.73,381.44 773.095,389.202 798.153,384.697 Z" id="Shape" stroke="#333333" stroke-width="3" stroke-dasharray="1.989943542485335,1.989943542485335"></path>
                <ellipse id="Oval" fill="#4D4D4D" fill-rule="nonzero" transform="translate(801.572000, 364.206000) rotate(-10.190000) translate(-801.572000, -364.206000) " cx="801.572" cy="364.206" rx="46.099" ry="25.899"></ellipse>
                <path d="M806.153,389.697 C831.211,385.193 849.473,370.129 846.943,356.051 C844.413,341.973 822.048,334.211 796.99,338.716 C771.932,343.219 753.67,358.283 756.2,372.361 C758.73,386.44 781.095,394.201 806.153,389.697 Z" id="Shape" stroke="#333333" stroke-width="3" stroke-dasharray="1.989943542485335,1.989943542485335"></path>
                <path d="M1023,318.1 C1023,318.1 1078,324.1 1102,333.1 C1126,342.1 1127,356.1 1127,356.1 C1127,356.1 546,859.1 533.2,864.4 C520.4,869.7 472,839.1 442,822.1 C412,805.1 385,777 373,744 C361,711 350,669 350,613.1 C350,539 367,462 427,427.1 C483,394.6 582,392 800,353.1 C800,353.1 980,322.1 1023,318.1 Z" id="Shape" fill="#FFFFFF" fill-rule="nonzero"></path>
                <path d="M595,891.1 C566,891.1 557.8,873.2 523,860.1 C467,839.1 451,766 451,648 C451,588 455.4,504.9 502,452 C539,410 576,429 649,414 C649,414 730.2,390.1 869,367 C1013,343 1091,341 1091,341 L1105.4,334.5 C1105.4,334.5 1161,339.1 1193,365.1 L595,891.1 Z" id="Shape" fill="#B1B0B0" fill-rule="nonzero"></path>
                <path d="M902,836.3 C915.4,833 926.9,830.1 935.9,828 C996.8,813.6 1142.4,775.7 1178,734.7 C1214.1,693.2 1234,589.7 1234,534.1 C1234,499.5 1230.2,385 1181.6,362.5 C1168,356.2 1143.4,353 1108.3,353 C1053.3,353 979.7,360.9 901.1,375.2 C778.3,397.5 610.8,431.5 574,468.3 C541,501.3 522.8,580.4 522.8,691.1 C522.8,792.5 532.8,840 560.8,872.6 C569.5,882.7 588.3,887.6 618.2,887.6 C695.1,887.6 824.6,855.5 902,836.3 Z" id="Shape" fill="#898A8A" fill-rule="nonzero"></path>
                <path d="M1108.4,357 C1055.9,357 982.6,364.4 902,379.1 C770,403.1 612,436.1 577,471.1 C542,506.1 527,592.1 527,691.1 C527,790.1 536.3,837.8 564,870 C572.4,879.7 592,883.6 618.4,883.6 C708.3,883.6 875.7,838.1 935,824.1 C1016,805 1143,769 1175,732.1 C1209.3,692.6 1230,591.1 1230,534.1 C1230,477.1 1221,385.1 1180,366.1 C1166.9,360 1141.9,357 1108.4,357 Z M1108.5,349 C1144.1,349 1169.3,352.3 1183.4,358.8 C1204,368.3 1219,393.6 1228.2,434 C1236.7,471.7 1238,512.8 1238,534 C1238,590.2 1217.7,695 1181,737.2 C1165.9,754.7 1130.6,773.2 1076,792.2 C1026.7,809.4 973.1,823.2 936.8,831.8 C927.8,833.9 916.3,836.8 902.9,840.1 C825.3,859.3 695.5,891.5 618.3,891.5 C587.1,891.5 567.4,886.1 557.9,875.1 C529.1,841.7 519,793.5 519,691 C519,638.6 523,593 531,555.3 C539.9,513.4 553.4,483.1 571.3,465.3 C588.2,448.4 630.7,431.3 701.1,413.1 C752,399.9 815.3,386.6 900.6,371.1 C979.4,356.9 1053.2,349 1108.5,349 Z" id="Shape" fill="#666666" fill-rule="nonzero"></path>
                <ellipse id="Oval" fill="#000000" fill-rule="nonzero" transform="translate(617.968000, 399.012000) rotate(-5.999000) translate(-617.968000, -399.012000) " cx="617.968" cy="399.012" rx="23.999" ry="5"></ellipse>
                <ellipse id="Oval" fill="#FFFFFF" fill-rule="nonzero" transform="translate(617.968000, 399.012000) rotate(-5.999000) translate(-617.968000, -399.012000) " cx="617.968" cy="399.012" rx="23.999" ry="5"></ellipse>
                <ellipse id="Oval" fill="#000000" fill-rule="nonzero" transform="translate(399.102000, 513.057000) rotate(-78.229000) translate(-399.102000, -513.057000) " cx="399.102" cy="513.057" rx="18.701" ry="11.3"></ellipse>
                <ellipse id="Oval" fill="#FFFFFF" fill-rule="nonzero" transform="translate(399.102000, 513.057000) rotate(-78.229000) translate(-399.102000, -513.057000) " cx="399.102" cy="513.057" rx="18.701" ry="11.3"></ellipse>
                <ellipse id="Oval" stroke="#B1B0B0" stroke-width="2" fill="#FFFFFF" fill-rule="nonzero" transform="translate(399.097000, 514.059000) rotate(-78.229000) translate(-399.097000, -514.059000) " cx="399.097" cy="514.059" rx="11.2" ry="6.7"></ellipse>
                <ellipse id="Oval" fill="#000000" fill-rule="nonzero" cx="679" cy="384" rx="4" ry="1"></ellipse>
                <path d="M485,604 C486,597 484,588 478,588 C472,588 471,590 469,598 C467,606 465,637 465,666 C465,695 470,741 470,745 C470,749 474,756 481,759 C488,762 486,750 486,750 C486,750 482,698 481,669 C481,669 484,611 485,604 Z" id="Shape" stroke="#666666" stroke-width="4"></path>
                <path d="M485,604 C486,597 484,588 478,588 C472,588 471,590 469,598 C467,606 465,637 465,666 C465,695 470,741 470,745 C470,749 474,756 481,759 C488,762 486,750 486,750 C486,750 482,698 481,669 C481,669 484,611 485,604 Z" id="Shape" fill="#898A8A" fill-rule="nonzero"></path>
                <path d="M476,623 L476,620" id="Shape"></path>
                <path d="M480,620 L480,616 L476,615 L476,611 L480,620 Z M480.5,735.5 L472.5,731.5 L472.5,727.5 L480.5,735.5 Z M377,649 C377,659 384,671 389,671 C394,671 398,668 398,661 L398,630 C398,612 390,602 386,602 C382,602 377,604 377,614 L377,649 Z" id="Shape" fill="#000000" fill-rule="nonzero"></path>
                <path d="M377,649 C377,659 384,671 389,671 C394,671 398,668 398,661 L398,630 C398,612 390,602 386,602 C382,602 377,604 377,614 L377,649 Z" id="Shape" fill="#FFFFFF" fill-rule="nonzero"></path>
                <path d="M257.3,460.4 C269.9,465.2 287.7,481.6 296,496 C307,515 318,516 318,516 L297,636 C297,636 300,640 283,636 C266,632 275,622 251,602 C226,581.2 222,582 222,582 L247,460 C249.5,458.5 253.1,458.8 257.3,460.4 Z" id="Shape" fill="#000000" fill-rule="nonzero"></path>
                <path d="M405.1,517.7 C405.1,517.7 406,519 403,516 C400,513 403,510 400,507 C397,504 393,511 393,511" id="Shape" stroke="#B1B0B0" stroke-width="2" fill="#FFFFFF" fill-rule="nonzero"></path>
                <path d="M397,513 L398,512" id="Shape" stroke="#B1B0B0" stroke-width="2"></path>
                <path d="M257,2 C257,2 286,-6 320,18 C354,42 374,47 374,47 C374,47 311,58 293,56 C275,54 213,8 198,8 L257,2 Z" id="Shape" fill="#3C3C3C" fill-rule="nonzero"></path>
            </g>
            <circle id="Oval" stroke="#FD603A" stroke-width="3" cx="760.5" cy="730.5" r="34"></circle>
            <path d="M1.577,815.5 L698.5,815.5" id="Shape" stroke="#FD603A" stroke-width="3" stroke-linecap="square"></path>
            <text id="Volume-Down-Button" fill="#7B7B7B" font-family="Verdana" font-size="34" font-weight="normal">
                <tspan x="0" y="801">Volume Down Button</tspan>
            </text>
            <circle id="Oval" stroke="#FD603A" stroke-width="3" cx="760.5" cy="600.5" r="34"></circle>
            <circle id="Oval" stroke="#FD603A" stroke-width="3" cx="664.5" cy="635.5" r="34"></circle>
            <path d="M1.577,735.5 L688.497,735.5" id="Shape" stroke="#FD603A" stroke-width="3" stroke-linecap="square"></path>
            <text id="Volume-Up-Button" fill="#7B7B7B" font-family="Verdana" font-size="34" font-weight="normal">
                <tspan x="0" y="721">Volume Up Button</tspan>
            </text>
            <path d="M7.577,580.5 L575.497,580.5" id="Shape" stroke="#FD603A" stroke-width="3" stroke-linecap="square"></path>
            <text id="KeyCode.JoystickButt" fill="#000000" font-family="Verdana" font-size="34" font-weight="normal">
                <tspan x="0" y="566">KeyCode.JoystickButton0</tspan>
            </text>
            <path d="M750.5,765.5 L699.978,816.022 M577.5,580.5 L628.022,631.022" id="Shape" stroke="#FD603A" stroke-width="3" stroke-linecap="square"></path>
            <circle id="Oval" stroke="#FD603A" stroke-width="3" cx="680.5" cy="510.5" r="34"></circle>
            <path d="M8.577,455.5 L591.497,455.5" id="Shape" stroke="#FD603A" stroke-width="3" stroke-linecap="square"></path>
            <text id="Home-Button" fill="#7B7B7B" font-family="Verdana" font-size="34" font-weight="normal">
                <tspan x="0" y="441">Home Button</tspan>
            </text>
            <path d="M593.5,455.5 L644.022,506.022" id="Shape" stroke="#FD603A" stroke-width="3" stroke-linecap="square"></path>
            <circle id="Oval" stroke="#FD603A" stroke-width="3" cx="900.5" cy="400.5" r="34"></circle>
            <path d="M2.5,335.5 L842.5,335.5" id="Shape" stroke="#FD603A" stroke-width="3" stroke-linecap="square"></path>
            <text id="Power-Button" fill="#7B7B7B" font-family="Verdana" font-size="34" font-weight="normal">
                <tspan x="0" y="321">Power Button</tspan>
            </text>
            <path d="M843.5,335.5 L884.5,369.5 M750.5,635.5 L689.5,734.5" id="Shape" stroke="#FD603A" stroke-width="3" stroke-linecap="square"></path>
        </g>
    </g>
</svg>